HIERARCHY
ROOT Hips
{
	OFFSET 0.000000 0.000000 0.000000
	CHANNELS 6 Xposition Yposition Zposition Zrotation Yrotation Xrotation 
	JOINT LHipJoint
	{
		OFFSET 0.000000 0.000000 0.000000
		CHANNELS 3 Zrotation Yrotation Xrotation
		JOINT LeftUpLeg
		{
			OFFSET 1.363060 -1.794630 0.839290
			CHANNELS 3 Zrotation Yrotation Xrotation
			JOINT LeftLeg
			{
				OFFSET 2.448110 -6.726130 0.000000
				CHANNELS 3 Zrotation Yrotation Xrotation
				JOINT LeftFoot
				{
					OFFSET 2.562200 -7.039590 0.000000
					CHANNELS 3 Zrotation Yrotation Xrotation
					JOINT LeftToeBase
					{
						OFFSET 0.157640 -0.433110 2.322550
						CHANNELS 3 Zrotation Yrotation Xrotation
						End Site
						{
							OFFSET 0.000000 0.000000 0.000000
						}
					}
				}
			}
		}
	}
	JOINT RHipJoint
	{
		OFFSET 0.000000 0.000000 0.000000
		CHANNELS 3 Zrotation Yrotation Xrotation
		JOINT RightUpLeg
		{
			OFFSET -1.305520 -1.794630 0.839290
			CHANNELS 3 Zrotation Yrotation Xrotation
			JOINT RightLeg
			{
				OFFSET -2.542530 -6.985550 0.000000
				CHANNELS 3 Zrotation Yrotation Xrotation
				JOINT RightFoot
				{
					OFFSET -2.568260 -7.056230 0.000000
					CHANNELS 3 Zrotation Yrotation Xrotation
					JOINT RightToeBase
					{
						OFFSET -0.164730 -0.452590 2.363150
						CHANNELS 3 Zrotation Yrotation Xrotation
						End Site
						{
							OFFSET 0.000000 0.000000 0.000000
						}
					}
				}
			}
		}
	}
	JOINT LowerBack
	{
		OFFSET 0.000000 0.000000 0.000000
		CHANNELS 3 Zrotation Yrotation Xrotation
		JOINT Spine
		{
			OFFSET 0.028270 2.035590 -0.193380
			CHANNELS 3 Zrotation Yrotation Xrotation
			JOINT Spine1
			{
				OFFSET 0.056720 2.048850 -0.042750
				CHANNELS 3 Zrotation Yrotation Xrotation
				JOINT Neck
				{
					OFFSET 0.000000 0.000000 0.000000
					CHANNELS 3 Zrotation Yrotation Xrotation
					JOINT Neck1
					{
						OFFSET -0.054170 1.746240 0.172020
						CHANNELS 3 Zrotation Yrotation Xrotation
						JOINT Head
						{
							OFFSET 0.104070 1.761360 -0.123970
							CHANNELS 3 Zrotation Yrotation Xrotation
							End Site
							{
								OFFSET 0.000000 0.000000 0.000000
							}
						}
					}
				}
				JOINT LeftShoulder
				{
					OFFSET 0.000000 0.000000 0.000000
					CHANNELS 3 Zrotation Yrotation Xrotation
					JOINT LeftArm
					{
						OFFSET 3.362410 1.200890 -0.311210
						CHANNELS 3 Zrotation Yrotation Xrotation
						JOINT LeftForeArm
						{
							OFFSET 4.983000 -0.000000 -0.000000
							CHANNELS 3 Zrotation Yrotation Xrotation
							JOINT LeftHand
							{
								OFFSET 3.483560 -0.000000 -0.000000
								CHANNELS 3 Zrotation Yrotation Xrotation
								JOINT LeftFingerBase
								{
									OFFSET 0.000000 0.000000 0.000000
									CHANNELS 3 Zrotation Yrotation Xrotation
									JOINT LeftHandIndex1
									{
										OFFSET 0.715260 -0.000000 -0.000000
										CHANNELS 3 Zrotation Yrotation Xrotation
										End Site
										{
											OFFSET 0.000000 0.000000 0.000000
										}
									}
								}
								JOINT LThumb
								{
									OFFSET 0.000000 0.000000 0.000000
									CHANNELS 3 Zrotation Yrotation Xrotation
									End Site
									{
										OFFSET 0.000000 0.000000 0.000000
									}
								}
							}
						}
					}
				}
				JOINT RightShoulder
				{
					OFFSET 0.000000 0.000000 0.000000
					CHANNELS 3 Zrotation Yrotation Xrotation
					JOINT RightArm
					{
						OFFSET -3.136600 1.374050 -0.404650
						CHANNELS 3 Zrotation Yrotation Xrotation
						JOINT RightForeArm
						{
							OFFSET -5.241900 -0.000000 -0.000000
							CHANNELS 3 Zrotation Yrotation Xrotation
							JOINT RightHand
							{
								OFFSET -3.444170 -0.000000 -0.000000
								CHANNELS 3 Zrotation Yrotation Xrotation
								JOINT RightFingerBase
								{
									OFFSET 0.000000 0.000000 0.000000
									CHANNELS 3 Zrotation Yrotation Xrotation
									JOINT RightHandIndex1
									{
										OFFSET -0.622530 -0.000000 -0.000000
										CHANNELS 3 Zrotation Yrotation Xrotation
										End Site
										{
											OFFSET 0.000000 0.000000 0.000000
										}
									}
								}
								JOINT RThumb
								{
									OFFSET 0.000000 0.000000 0.000000
									CHANNELS 3 Zrotation Yrotation Xrotation
									End Site
									{
										OFFSET 0.000000 0.000000 0.000000
									}
								}
							}
						}
					}
				}
			}
		}
	}
}
MOTION
Frames: 10
Frame Time: 0.008333
-1.191766 18.383497 2.039750 -76.629530 80.245830 -51.321964 3.974433 1.168668 -3.900240 1.186572 -15.500023 -21.314149 -0.958377 6.036713 13.260596 -8.616941 27.505107 -2.049898 1.228700 -7.030000 -19.804300 2.723001 2.882485 -4.438399 20.885802 15.712379 -26.600898 0.519424 -6.978520 17.557562 2.492900 -11.881337 5.416379 -1.130300 6.752400 -18.984000 -21.958315 5.037137 22.052396 52.668441 8.583168 -15.007830 -6.921542 2.064772 -16.402402 1.725520 1.275218 -21.620539 -9.078395 4.569554 6.250626 -1.923800 2.163300 4.308000 -5.579348 5.914345 -0.768900 -78.911988 -25.555341 93.954317 50.042351 -51.735814 -33.637815 1.669686 -0.881417 -22.929037 -1.643476 19.492521 -1.013800 -7.125000 0.000000 0.000000 -30.125600 48.387000 -2.750300 -6.117230 4.966724 3.005819 36.438236 6.232502 51.666146 -68.225543 57.026645 -41.271829 -0.595286 0.622083 -32.476737 -6.259103 8.281736 -0.791200 7.125000 0.000000 0.000000 15.028700 -22.563300 8.396300 
-1.181279 18.381109 2.028744 -77.740965 80.114215 -52.380614 4.089477 1.159301 -3.970827 1.209131 -15.421734 -21.459175 -0.929578 6.124913 13.490777 -8.553802 27.363095 -1.901013 1.291100 -7.199700 -20.308300 2.792915 2.908780 -4.458599 20.963229 15.598020 -26.601037 0.520488 -6.999416 17.608875 2.427282 -11.658913 5.290010 -1.003400 6.374100 -17.873700 -22.141186 5.108427 22.007174 52.407355 8.859513 -15.495947 -6.858609 2.131616 -16.161467 1.550406 1.011928 -21.644054 -8.752212 4.236211 6.561001 -1.804100 2.010700 4.353000 -5.586075 5.889548 -0.717885 -78.971461 -24.955304 93.047701 48.458973 -51.108287 -32.061556 1.692379 -0.926607 -22.795563 -0.813884 19.607237 -0.724300 -7.125000 0.000000 0.000000 -29.494100 48.652000 -2.889700 -6.101406 4.933778 3.045139 36.876631 5.822101 52.015065 -66.327555 56.675813 -39.610689 -0.613417 0.596716 -32.013727 -7.234634 8.098890 -0.893600 7.125000 0.000000 0.000000 14.373300 -22.712300 7.955100 
-1.175465 18.375606 2.021579 -78.213814 79.974711 -52.381629 4.199279 1.081246 -4.118819 1.331620 -15.157935 -21.997899 -0.908144 6.237665 13.722898 -8.437800 27.075462 -1.951661 1.219500 -7.004700 -19.729400 2.774519 2.964252 -4.578171 21.012220 15.690595 -26.970220 0.520146 -7.027320 17.643228 2.395162 -11.579094 5.264041 -1.001100 6.367000 -17.853000 -22.288225 5.095063 21.783673 51.908288 9.373900 -16.570401 -6.806079 2.189810 -15.557879 1.418648 0.757150 -21.766244 -8.431367 3.908675 7.046627 -1.684600 1.855700 4.472400 -5.584239 5.777938 -0.597893 -78.919944 -24.292748 92.004396 47.096991 -50.522009 -30.651477 1.739582 -0.980897 -22.746126 0.682167 19.953718 -0.196900 -7.125000 0.000000 0.000000 -28.420200 49.240600 -3.207300 -6.066490 4.888908 3.134894 37.308586 5.304135 52.385441 -64.803344 56.371926 -38.287937 -0.629161 0.570449 -31.708927 -8.141946 7.785381 -0.965100 7.125000 0.000000 0.000000 13.771900 -22.988300 7.512100 
-1.171415 18.369584 2.015350 -78.777333 79.833831 -52.762724 4.303096 1.043661 -4.183679 1.400540 -14.895016 -22.343745 -0.894072 6.324559 13.960167 -8.264354 26.570581 -2.165942 1.038600 -6.481500 -18.188200 2.799263 2.987157 -4.615824 21.104138 15.755080 -27.114012 0.517718 -7.042222 17.659534 2.409141 -11.639670 5.259716 -1.040700 6.487800 -18.206600 -22.555892 5.129817 21.649930 51.632384 9.609056 -17.021960 -6.704713 2.251228 -15.273367 1.280644 0.516486 -21.890593 -8.102836 3.599748 7.311070 -1.565900 1.717900 4.523400 -5.604102 5.755475 -0.542731 -78.737563 -23.595706 90.667159 46.124546 -50.095397 -29.591029 1.794432 -1.017959 -22.950812 2.394587 20.540857 0.433800 -7.125000 0.000000 0.000000 -27.272000 50.080600 -3.655600 -6.045345 4.847631 3.168873 37.576157 4.986199 52.899631 -63.425508 56.071443 -37.099115 -0.642894 0.545956 -31.524342 -8.936899 7.493791 -1.018100 7.125000 0.000000 0.000000 13.242100 -23.246400 7.126300 
-1.165082 18.366988 2.004655 -79.960452 79.691860 -54.059689 4.408274 1.048594 -4.207252 1.415163 -14.787070 -22.397785 -0.864868 6.397798 14.192725 -8.170658 26.315148 -2.047183 1.034500 -6.469100 -18.151800 2.885141 2.985096 -4.587249 21.225783 15.645273 -27.029821 0.517882 -7.054261 17.684855 2.397967 -11.598284 5.178985 -1.003300 6.374000 -17.873500 -22.816811 5.235335 21.723693 51.513373 9.697699 -17.121683 -6.557163 2.324507 -15.278655 1.121848 0.312104 -21.984518 -7.764937 3.339144 7.545706 -1.447300 1.604300 4.558600 -5.622706 5.798155 -0.528606 -78.601731 -22.883594 89.323633 45.278986 -49.720066 -28.665541 1.839885 -1.019189 -23.270887 3.661658 21.443022 0.937700 -7.125000 0.000000 0.000000 -26.675500 51.114200 -4.277600 -6.029497 4.815520 3.176353 37.719644 4.576112 53.583020 -62.398436 55.835354 -36.220918 -0.654195 0.515911 -31.538907 -9.659054 6.937693 -1.013200 7.125000 0.000000 0.000000 12.782500 -23.763300 6.710000 
-1.154595 18.365534 1.991988 -81.319109 79.588381 -55.425242 4.514599 1.034400 -4.273131 1.402513 -14.712137 -22.485255 -0.836696 6.472840 14.411554 -8.084814 26.106618 -1.845735 1.104000 -6.676200 -18.759600 2.964759 2.993992 -4.596706 21.304535 15.468017 -27.012535 0.524595 -7.059164 17.667099 2.393831 -11.602700 5.170337 -1.014300 6.407700 -17.972100 -22.987194 5.296721 21.811193 51.262869 9.887510 -17.537021 -6.423919 2.380704 -15.169099 0.874575 0.103705 -22.085757 -7.321943 3.074843 7.946401 -1.288500 1.488500 4.638000 -5.622494 5.802034 -0.478914 -78.412586 -22.184230 88.180661 44.584387 -49.402141 -27.895632 1.872994 -1.001231 -23.912013 4.739181 22.417911 1.410400 -7.125000 0.000000 0.000000 -26.279900 52.182800 -4.926300 -5.993300 4.773460 3.210720 37.839878 3.943745 54.264259 -61.846347 55.715289 -35.755366 -0.662099 0.491027 -31.587208 -10.212789 6.390095 -0.979800 7.125000 0.000000 0.000000 12.437600 -24.280100 6.367900 
-1.143381 18.364911 1.979217 -82.625971 79.475372 -56.685239 4.617946 1.008443 -4.347861 1.423829 -14.672595 -22.597801 -0.810708 6.550047 14.638171 -8.007969 25.900336 -1.807597 1.180900 -6.896700 -19.409800 3.034408 3.000007 -4.614273 21.396160 15.304430 -27.016585 0.534826 -7.054365 17.619571 2.386193 -11.608805 5.216204 -1.060500 6.547400 -18.381100 -23.085319 5.360965 21.877740 50.931719 10.124965 -18.033290 -6.360852 2.433028 -14.993426 0.710982 -0.118242 -22.066529 -6.987484 2.774638 8.167398 -1.171000 1.358100 4.659200 -5.621817 5.796431 -0.417708 -78.045486 -21.527083 87.082183 44.287501 -49.265707 -27.483550 1.904842 -0.977548 -24.797196 6.037895 23.370398 2.013100 -7.125000 0.000000 0.000000 -25.668600 53.287100 -5.519000 -5.945885 4.719744 3.247159 37.985691 3.225635 54.808093 -61.600938 55.674565 -35.556555 -0.664496 0.468693 -31.781575 -10.538839 5.780124 -0.905000 7.125000 0.000000 0.000000 12.257800 -24.864700 6.101300 
-1.132271 18.364392 1.964992 -83.936184 79.318332 -57.903754 4.720723 0.980226 -4.429618 1.467956 -14.555285 -22.764889 -0.770848 6.634975 14.855244 -7.966521 25.846728 -1.435318 1.386100 -7.449300 -21.053500 3.104251 3.000973 -4.629674 21.511686 15.211230 -27.027357 0.547506 -7.040977 17.547675 2.399246 -11.669041 5.196060 -1.119800 6.722200 -18.895000 -23.147670 5.404686 21.878044 50.624010 10.365831 -18.513647 -6.329940 2.483586 -14.769220 0.536288 -0.317750 -21.910992 -6.656457 2.493217 8.197338 -1.058200 1.241300 4.621400 -5.618075 5.785095 -0.358964 -77.663362 -20.813950 85.766739 44.254458 -49.257818 -27.326403 1.926723 -0.926770 -25.777875 6.817967 24.442313 2.434400 -7.125000 0.000000 0.000000 -25.618700 54.389500 -6.219700 -5.900333 4.656438 3.277342 38.101171 2.496885 55.296353 -61.571902 55.686368 -35.541403 -0.662950 0.452907 -32.069494 -10.642220 5.304935 -0.830000 7.125000 0.000000 0.000000 12.225400 -25.323100 5.950900 
-1.124380 18.362004 1.951390 -85.210528 79.179178 -59.152805 4.814038 0.950493 -4.496468 1.518587 -14.475865 -22.891694 -0.738489 6.706601 15.062114 -7.892817 25.669621 -1.226187 1.460000 -7.636800 -21.616100 3.170664 2.990103 -4.632219 21.621708 15.128228 -27.002644 0.557998 -7.029149 17.478684 2.433486 -11.801723 5.203085 -1.173100 6.874900 -19.345400 -23.275110 5.468419 21.970562 50.369966 10.533983 -18.874688 -6.229971 2.539131 -14.672886 0.315589 -0.496460 -21.904289 -6.225061 2.249409 8.350144 -0.910700 1.143800 4.628600 -5.622636 5.818284 -0.313388 -77.257268 -19.816541 84.216559 44.569203 -49.433872 -27.517480 1.940525 -0.851882 -26.563827 6.857674 25.565060 2.535200 -7.125000 0.000000 0.000000 -26.332900 55.363300 -7.055500 -5.851283 4.587400 3.299394 38.155309 1.785628 55.823171 -61.768303 55.757727 -35.723486 -0.660086 0.439269 -32.587142 -10.648170 4.840030 -0.748000 7.125000 0.000000 0.000000 12.261900 -25.775100 5.836900 
-1.114724 18.360654 1.939865 -86.502862 79.038620 -60.485894 4.905439 0.927320 -4.533031 1.546968 -14.344943 -22.999256 -0.717081 6.758085 15.253038 -7.760830 25.288004 -1.181623 1.415400 -7.524100 -21.277800 3.243366 2.968416 -4.604073 21.741288 15.028775 -26.950248 0.566311 -7.020110 17.427960 2.453272 -11.877668 5.177447 -1.206500 6.968600 -19.622500 -23.388978 5.556450 22.032682 50.088566 10.630037 -19.021185 -6.206091 2.588807 -14.633943 0.277666 -0.719283 -22.105074 -5.897371 1.944128 8.514213 -0.804100 1.017900 4.651800 -5.661654 5.887352 -0.280964 -76.600732 -18.912122 82.755850 45.184408 -49.769304 -28.002707 1.943617 -0.759237 -27.415238 6.543604 26.636817 2.460900 -7.125000 0.000000 0.000000 -27.381900 56.193100 -7.936000 -5.795771 4.513104 3.305220 38.276139 1.048883 56.192561 -62.097236 55.873090 -36.022878 -0.651661 0.432300 -33.227800 -10.408313 4.478985 -0.668200 7.125000 0.000000 0.000000 12.466400 -26.128100 5.833200 
